# xmcd
#
# Track frame offsets: 
#        150
#        16311
#        44425
#        57923
#        79631
#        106186
#        141436
#        158994
#        194741
#        210173
#        239148
#        264572
#
# Disc length: 3864 seconds
#
# Revision: 0
# Processed by: cddbd v1.5.2PL0 Copyright (c) Steve Scherf et al.
# Submitted via: ExactAudioCopyFreeDBPlugin 1.0
#
DISCID=a90f160c
DTITLE=Bobby Murray - Live and Lowdown!
DYEAR=2006
DGENRE=Blues
TTITLE0=Further On Up The Road
TTITLE1=Sex Machine
TTITLE2=Broke and Hungry
TTITLE3=Live and Lowdown
TTITLE4=Tribute To John Lee
TTITLE5=The Rivers Invitation
TTITLE6=After Hours Groove
TTITLE7=Last 2 Dollars
TTITLE8=Double Clutch
TTITLE9=After Hours Groove #2
TTITLE10=Crossroads
TTITLE11=Time To Say Goodbye
EXTD=
EXTT0=
EXTT1=
EXTT2=
EXTT3=
EXTT4=
EXTT5=
EXTT6=
EXTT7=
EXTT8=
EXTT9=
EXTT10=
EXTT11=
PLAYORDER=
